<?xml version="1.0" encoding="UTF-8" standalone="no"?>
<!-- Created with Inkscape (http://www.inkscape.org/) -->

<svg
   width="1000"
   height="1000"
   viewBox="0 0 264.58333 264.58333"
   version="1.1"
   id="svg1"
   xml:space="preserve"
   inkscape:version="1.3 (0e150ed6c4, 2023-07-21)"
   sodipodi:docname="logo.svg"
   inkscape:export-filename="logo.png"
   inkscape:export-xdpi="96"
   inkscape:export-ydpi="96"
   xmlns:inkscape="http://www.inkscape.org/namespaces/inkscape"
   xmlns:sodipodi="http://sodipodi.sourceforge.net/DTD/sodipodi-0.dtd"
   xmlns="http://www.w3.org/2000/svg"
   xmlns:svg="http://www.w3.org/2000/svg"><sodipodi:namedview
     id="namedview1"
     pagecolor="#ffffff"
     bordercolor="#666666"
     borderopacity="1.0"
     inkscape:showpageshadow="2"
     inkscape:pageopacity="0.0"
     inkscape:pagecheckerboard="0"
     inkscape:deskcolor="#d1d1d1"
     inkscape:document-units="px"
     inkscape:zoom="0.65092257"
     inkscape:cx="258.86336"
     inkscape:cy="561.51072"
     inkscape:window-width="2560"
     inkscape:window-height="1371"
     inkscape:window-x="0"
     inkscape:window-y="32"
     inkscape:window-maximized="1"
     inkscape:current-layer="layer1" /><defs
     id="defs1" /><g
     inkscape:label="Layer 1"
     inkscape:groupmode="layer"
     id="layer1"><ellipse
       style="fill:#ffffff;stroke-width:0.55679;stroke-linecap:round;stroke-linejoin:round;paint-order:stroke markers fill"
       id="path11"
       cx="132.41658"
       cy="132.81212"
       rx="130.06181"
       ry="129.66093" /><path
       id="path9"
       style="fill:#ee8da9;fill-opacity:1;stroke-width:1.00651"
       d="M 139.46125 20.560502 C 138.94996 20.545928 138.62557 20.573671 138.18433 20.576005 C 137.34364 20.60675 136.66065 20.603511 135.38295 20.700545 C 132.88262 20.890428 128.1893 21.080175 124.95361 21.122225 C 124.35814 21.129963 123.89842 21.161416 123.33459 21.175968 C 121.8419 21.236221 120.23146 21.292545 119.11211 21.365621 C 118.961 21.376571 118.86014 21.39124 118.71627 21.402828 C 117.64036 21.478836 116.92822 21.565889 116.25233 21.653975 C 115.00303 21.858841 111.91975 22.599679 108.55461 23.448181 C 107.84173 23.632615 107.49862 23.706788 106.7263 23.910685 C 104.692 24.436225 102.80705 24.974228 100.79488 25.528157 C 98.419807 26.188864 96.199005 26.810061 94.809199 27.238647 C 93.412258 27.672909 92.038133 28.14684 90.678702 28.649414 C 89.873894 28.952727 89.067019 29.244064 88.264379 29.578039 C 87.506337 29.886224 86.755026 30.243636 86.001985 30.576945 C 80.871795 32.902156 75.706863 35.845709 70.126985 39.702486 C 60.029625 46.681701 59.603323 47.047438 52.02318 55.233837 C 46.299306 61.415539 43.737169 64.455689 40.774772 68.581859 C 34.659968 77.098894 28.945837 88.703492 25.92865 98.73144 C 24.560561 103.27842 23.833003 106.75423 23.828003 108.76442 C 23.826003 109.61474 23.328023 112.71038 22.721093 115.64359 C 21.736654 120.40114 21.620457 121.34779 21.644157 124.41618 C 21.658757 126.30793 21.486691 129.28451 21.261751 131.03076 C 20.403822 137.69103 20.804253 145.35643 22.408451 152.99118 C 24.544559 163.15723 27.607447 172.83719 30.906123 179.84638 C 35.113509 188.78653 37.415825 193.16378 38.880314 195.0067 C 39.730543 196.07662 41.203893 198.13371 42.154532 199.578 C 44.90618 203.7584 47.239893 206.21188 50.780879 208.64824 C 52.227458 209.64354 53.912524 211.31485 57.280741 215.09384 C 62.124706 220.5285 64.087644 222.30513 67.88061 224.68964 C 71.082717 226.7027 79.867318 231.10011 83.620735 232.56875 C 89.549389 234.88853 118.6234 244.23439 121.22412 244.65638 C 122.15204 244.80695 125.17358 244.94267 127.93844 244.95817 C 130.70333 244.97367 133.62036 245.07641 134.42073 245.18658 C 136.14673 245.42417 135.99739 245.43824 142.8874 244.39903 C 157.89683 242.1352 158.93967 241.89167 170.45471 237.96118 C 179.82468 234.76292 179.64503 234.83765 185.87186 231.5347 C 199.67956 224.2106 197.53382 225.61976 204.50844 219.29669 C 214.83619 209.93369 219.56106 205.48341 221.10485 203.66509 C 223.69357 200.61597 227.4446 194.69176 230.74147 188.44534 C 234.47833 181.36532 236.06672 177.93984 236.99018 174.97071 C 237.35548 173.79624 238.18753 171.16805 238.83917 169.13076 C 240.6252 163.54696 241.18214 161.17717 242.10202 155.24013 C 242.73058 151.18332 243.23711 148.9107 244.11171 146.22311 C 245.52229 141.8885 245.514 142.12438 244.73958 127.65112 C 244.23563 118.2326 244.14527 117.33613 243.41976 114.61471 C 242.99127 113.00743 242.51593 110.44757 242.3635 108.92617 C 241.86544 103.95463 240.35623 98.794964 238.0697 94.246442 C 236.86422 91.848448 233.89961 84.792985 232.40287 80.759927 C 231.75481 79.013683 230.82399 76.751486 230.33426 75.732844 C 229.45871 73.911674 228.98673 73.236016 225.32164 68.552921 C 224.31223 67.263141 222.71568 65.017214 221.77354 63.562011 C 219.63105 60.252735 218.72029 59.178228 216.93249 57.848665 C 216.15294 57.268897 214.74159 55.78437 213.79573 54.549641 C 211.0684 50.989463 201.29385 42.895177 195.87073 39.705586 C 194.45149 38.870873 191.62365 37.095144 189.58636 35.760091 C 182.87626 31.362889 178.56383 29.193807 172.88299 27.357503 C 169.24339 26.181025 154.62992 22.387933 151.47551 21.798152 C 151.34446 21.775173 151.20877 21.753508 151.07811 21.73149 C 147.65866 21.125401 142.89157 20.658296 139.46125 20.560502 z " /><path
       style="fill:#70dbf5;fill-opacity:1"
       d="m 126.26064,240.00736 c -6.1911,-0.53915 -11.52942,-1.7345 -22.35729,-5.00621 -12.159656,-3.67413 -17.036576,-5.50087 -23.709696,-8.88094 -7.70451,-3.90248 -13.65739,-8.44834 -21.04074,-16.06754 -10.55908,-10.89638 -17.48721,-20.17571 -22.44637,-30.06399 -3.61313,-7.20436 -5.5513,-12.73681 -8.30095,-23.69487 -3.24093,-12.91596 -3.37746,-14.24945 -2.83076,-27.64896 0.37809,-9.26677 0.39946,-9.47962 1.5938,-15.875 2.30948,-12.36652 3.27476,-15.604288 7.17818,-24.077078 5.71664,-12.40863 8.56019,-16.71958 17.56507,-26.62946 9.12919,-10.04669 11.51874,-12.05829 25.40085,-21.38329 6.09762,-4.09595 8.0308,-5.13157 13.79566,-7.39047 16.444816,-6.44375 23.720326,-7.71952 43.751206,-7.67187 9.90456,0.0236 15.93851,0.35425 19.31458,1.05853 2.64285,0.55132 10.84066,3.1255 14.41979,4.52793 4.23391,1.659 9.72646,4.32708 14.487,7.03728 6.7671,3.85253 15.68043,9.4006 17.92048,11.15453 3.13684,2.45611 6.6484,6.23834 11.3056,12.17702 2.28239,2.91042 5.18713,6.42276 6.45498,7.80521 4.16868,4.54549 5.54263,6.81485 8.57006,14.15521 0.90027,2.18281 2.46652,5.69516 3.48056,7.80521 1.71735,3.57352 4.7986,11.207218 5.49999,13.626048 0.16879,0.58208 0.41729,2.66567 0.55223,4.6302 0.13494,1.96454 0.43003,4.58391 0.65577,5.82084 0.22573,1.23692 0.52294,3.86448 0.66045,5.83902 0.14073,2.02066 0.51158,4.62308 0.84832,5.95312 0.52666,2.08015 0.59864,3.02829 0.60124,7.91932 0.003,6.40697 -0.49718,9.67094 -2.13258,13.90553 -0.82811,2.14425 -0.96256,2.84515 -1.18231,6.16318 -0.29951,4.52244 -0.27399,4.38928 -1.75707,9.16775 -3.75525,12.09938 -3.61159,11.76701 -9.32049,21.56354 -7.61042,13.05957 -12.42124,18.96443 -22.77756,27.95747 -16.43184,14.26878 -36.563,22.87742 -59.00208,25.23092 -2.11006,0.22131 -5.18201,0.57813 -6.82658,0.79294 -3.20713,0.41889 -6.35231,0.44888 -10.37134,0.0989 z"
       id="path860" /><path
       id="path946"
       style="fill:#050404;fill-opacity:1"
       d="m 133.49448,11.71848 c -14.197,0.02535 -20.76382,0.926778 -28.57499,3.921725 -0.58209,0.223181 -1.62912,0.411145 -2.32648,0.417545 -3.59461,0.03292 -9.04613,1.796909 -16.32665,5.282882 -2.98318,1.428363 -6.19787,2.866501 -7.14375,3.19567 -3.26159,1.135035 -8.98872,4.22576 -13.89062,7.4967 -7.63734,5.096218 -12.83564,9.821864 -24.34994,22.136117 -8.22731,8.798906 -9.46534,10.694027 -10.55904,16.162837 -0.092,0.459925 -0.56748,0.951856 -1.44953,1.500167 -1.46972,0.913625 -2.17989,2.063738 -2.96054,4.793506 -0.2674,0.935052 -1.0683,2.604893 -1.77974,3.710884 -0.71145,1.105989 -1.53736,2.427451 -1.83503,2.936772 -1.8253,3.123238 -6.04617,15.052747 -7.58351,21.432285 -1.90583,7.90852 -2.37905,12.28925 -2.81844,26.10797 -0.23674,7.44572 -0.23328,9.86866 0.0155,10.90579 0.17593,0.73334 0.39832,1.32332 0.49402,1.31052 0.7859,-0.10473 1.62936,1.00455 1.62936,2.14302 0,0.62511 -0.007,0.62718 -0.90899,0.28422 -0.63528,-0.24153 -0.67851,-0.20724 -0.67851,0.53743 0,0.99738 1.21895,9.252 1.74821,11.83856 0.65808,3.21597 3.25965,12.45782 4.26021,15.13396 3.31596,8.86899 9.11032,20.61427 13.18317,26.72291 2.40846,3.61228 7.5454,10.18215 11.37864,14.55209 4.78004,5.4493 11.22857,11.30539 15.73185,14.28698 0.94589,0.62626 3.10136,2.25166 4.79041,3.61218 1.68906,1.3605 3.20295,2.47375 3.36413,2.47375 0.16122,0 0.43427,-0.26788 0.60669,-0.59531 0.72732,-1.38111 1.55752,-1.00037 1.55752,0.71417 0,1.38986 0.37227,1.74352 3.70417,3.51916 1.38245,0.73674 3.52557,1.89493 4.7625,2.57401 7.33447,4.02668 15.42298,7.01816 25.78757,9.53688 9.17857,2.2305 11.29003,2.5693 21.30826,3.41788 5.1812,0.43887 7.81661,0.47283 11.64167,0.1509 1.67349,-0.14085 5.24537,-0.38055 7.9375,-0.53279 7.02706,-0.39735 10.277,-1.01798 14.13454,-2.69957 1.65603,-0.72191 2.00248,-0.78195 3.60805,-0.62374 2.24133,0.22086 3.76538,-0.26219 8.71574,-2.76365 3.00247,-1.51718 3.86712,-1.83579 5.42396,-1.9973 2.38246,-0.24718 4.3384,-0.92788 6.33863,-2.20658 0.8794,-0.56218 3.14671,-1.63868 5.03845,-2.3921 3.82198,-1.52214 5.57245,-2.64561 6.72931,-4.3186 1.31021,-1.89475 1.51536,-2.04794 2.74919,-2.04794 0.87464,0 1.28934,-0.15377 1.75803,-0.65267 0.33731,-0.35905 1.16161,-0.83565 1.83193,-1.05937 1.27173,-0.42444 7.52708,-4.94574 11.60394,-8.38708 5.2669,-4.44592 12.55806,-12.2824 17.31367,-18.60817 13.17002,-17.51831 21.2008,-38.52153 23.36912,-61.11875 0.72857,-7.59282 0.45736,-22.55746 -0.52762,-29.10417 -1.08821,-7.23283 -2.28634,-13.48746 -2.66289,-13.90354 -0.22654,-0.25033 -0.78652,-0.53048 -1.24488,-0.62218 l -0.83354,-0.1664 0.58239,-0.40825 c 0.32026,-0.22432 0.58239,-0.678235 0.58239,-1.008724 0,-0.33049 -0.94156,-3.399675 -2.09237,-6.820773 -2.73902,-8.142519 -4.57079,-11.813563 -7.96489,-15.963883 -1.39706,-1.708313 -1.52733,-1.982651 -1.68052,-3.532601 -0.2121,-2.146104 -1.16812,-3.943036 -3.72277,-6.998022 -2.07784,-2.484787 -5.98413,-8.007504 -7.05538,-9.974585 -0.59546,-1.093419 -0.73401,-1.191808 -1.69396,-1.207678 -0.99834,-0.0165 -1.06502,-0.07246 -1.48208,-1.238168 -0.57827,-1.616292 -5.12169,-7.254681 -7.20266,-8.938472 -0.8958,-0.724823 -2.22537,-1.568774 -2.95434,-1.875338 -1.00051,-0.42076 -1.58357,-0.913206 -2.37918,-2.010213 -1.35187,-1.863978 -3.02906,-3.288377 -7.98194,-6.778397 -5.2938,-3.730222 -9.13738,-6.000805 -15.7024,-9.274886 -12.53526,-6.251529 -18.86815,-8.337747 -21.76353,-7.170622 -0.35864,0.144566 -0.55001,-0.01761 -0.83975,-0.711068 l -0.37516,-0.898136 -4.98109,-1.238684 c -9.7646,-2.42863 -14.48706,-2.98047 -25.35401,-2.96106 z m -2.77812,4.615222 c 0.14552,0 0.26458,0.119063 0.26458,0.264584 0,0.14552 -0.11906,0.264583 -0.26458,0.264583 -0.14552,0 -0.26458,-0.119063 -0.26458,-0.264583 0,-0.145521 0.11906,-0.264584 0.26458,-0.264584 z m -4.16874,0.275436 c 0.3267,-0.0023 0.71309,0.07111 0.94981,0.221175 0.28151,0.178457 0.26375,0.257839 -0.0879,0.392741 -0.24236,0.09301 -0.52033,0.159801 -0.61753,0.148311 -0.43243,-0.05109 -0.83819,-0.307713 -0.83819,-0.5302 0,-0.151711 0.26706,-0.229758 0.59376,-0.232027 z m 12.91343,3.95118 c 3.51222,0.100129 8.46084,0.580652 11.89281,1.208195 3.03749,0.555409 17.86822,4.405505 21.52892,5.588806 5.68085,1.836306 9.99327,4.005382 16.70337,8.402588 2.03729,1.335055 4.86513,3.110781 6.28437,3.945495 5.42313,3.189594 15.19767,11.283873 17.92501,14.844055 0.94586,1.23473 2.3572,2.719256 3.13675,3.299024 1.7878,1.329565 2.69856,2.404067 4.84105,5.713346 0.94214,1.455205 2.53869,3.701129 3.54811,4.99091 3.66509,4.6831 4.13706,5.358751 5.01261,7.179923 0.48973,1.018643 1.42055,3.280837 2.06861,5.027083 1.49675,4.033062 4.46136,11.088518 5.66684,13.486515 2.28653,4.548526 3.79573,9.708192 4.29379,14.679732 0.15243,1.52141 0.62778,4.08126 1.05627,5.68854 0.72551,2.72142 0.81586,3.61788 1.31981,13.03641 0.77442,14.47327 0.78271,14.23737 -0.62787,18.57199 -0.8746,2.68759 -1.38112,4.9602 -2.00969,9.01702 -0.91988,5.93704 -1.47681,8.30682 -3.26285,13.89063 -0.65164,2.03729 -1.48369,4.66548 -1.84899,5.83995 -0.92346,2.96913 -2.51184,6.3946 -6.24871,13.47463 -3.29687,6.24642 -7.04789,12.17063 -9.63662,15.21975 -1.54379,1.81833 -6.26864,6.26859 -16.5964,15.6316 -6.97463,6.32308 -4.82887,4.9139 -18.63659,12.23801 -6.22683,3.30295 -6.04717,3.22821 -15.41715,6.42648 -11.51505,3.93049 -12.55787,4.17402 -27.56731,6.43785 -6.89002,1.03921 -6.74066,1.02514 -8.46666,0.78755 -0.80037,-0.11017 -3.71741,-0.21291 -6.4823,-0.22841 -2.76487,-0.0155 -5.78639,-0.15122 -6.71431,-0.30179 -2.60073,-0.42199 -31.67473,-9.76784 -37.60339,-12.08763 -3.75342,-1.46864 -12.53802,-5.86605 -15.74013,-7.87911 -3.79297,-2.38451 -5.7559,-4.16114 -10.59987,-9.5958 -3.36822,-3.779 -5.05328,-5.4503 -6.49986,-6.4456 -3.54099,-2.43637 -5.8747,-4.88983 -8.62635,-9.07024 -0.95064,-1.44429 -2.42398,-3.50138 -3.27421,-4.5713 -1.46449,-1.84292 -3.7668,-6.22017 -7.97419,-15.16032 -3.29868,-7.0092 -6.36157,-16.68914 -8.49768,-26.8552 -1.6042,-7.63475 -2.00463,-15.30014 -1.1467,-21.96042 0.22494,-1.74625 0.39701,-4.72282 0.38241,-6.61458 -0.0237,-3.06839 0.0925,-4.01503 1.07694,-8.77259 0.60693,-2.93321 1.10491,-6.02885 1.10691,-6.87917 0.005,-2.01019 0.73255,-5.486 2.10064,-10.032984 3.01719,-10.027958 8.73131,-21.632538 14.84612,-30.149581 2.9624,-4.126175 5.52453,-7.166314 11.24841,-13.348022 7.58015,-8.186407 8.00644,-8.552129 18.10381,-15.531351 8.11644,-5.610032 15.36451,-9.395004 22.88646,-11.950692 3.45887,-1.175214 19.43431,-5.484 22.22499,-5.994466 1.57157,-0.287468 5.12515,-0.521197 10.45105,-0.68678 4.43835,-0.137987 9.31994,-0.351197 10.84791,-0.474389 0.74231,-0.05985 1.75311,-0.06903 2.92386,-0.03566 z m -55.33874,6.936527 c 0.58359,-0.0037 0.31097,0.684652 -0.54157,0.981852 -1.19476,0.416494 -1.54771,0.361977 -1.54771,-0.238745 0,-0.371305 0.17759,-0.530284 0.59531,-0.532784 0.32742,-0.002 0.8632,-0.07503 1.19062,-0.16278 0.11912,-0.03192 0.21997,-0.04702 0.30335,-0.04754 z m 100.83208,1.165304 c 0.53306,-0.01384 2.67462,1.171039 2.50889,1.439188 -0.21281,0.344336 -0.60427,0.304105 -1.77973,-0.183451 -0.92117,-0.382065 -1.22352,-0.82907 -0.82786,-1.224731 0.0197,-0.01968 0.0535,-0.02983 0.0987,-0.03101 z m 11.93209,8.179862 c 0.55112,-0.0088 1.36824,0.978835 0.94361,1.249019 -0.45057,0.286693 -0.57609,0.253409 -1.05937,-0.280603 -0.54427,-0.601403 -0.54663,-0.74057 -0.0176,-0.943611 0.042,-0.0161 0.0866,-0.02405 0.13332,-0.02481 z M 39.96428,56.550369 c 0.14552,0 0.26458,0.297657 0.26458,0.661458 0,0.363802 -0.11906,0.661458 -0.26458,0.661458 -0.14553,0 -0.26459,-0.297656 -0.26459,-0.661458 0,-0.363801 0.11906,-0.661458 0.26459,-0.661458 z m -7.09104,17.991666 c 0.53155,0 0.61716,0.565822 0.20257,1.340487 -0.36301,0.67828 -0.63897,0.645447 -0.9865,-0.117306 -0.32779,-0.71941 -0.005,-1.223181 0.78393,-1.223181 z m 203.05633,6.143294 c 0.0943,-7.76e-4 0.17942,0.142365 0.34107,0.444418 0.17588,0.328637 0.25458,0.766674 0.17518,0.973584 -0.20041,0.52225 -0.62159,0.469986 -0.93534,-0.116272 -0.18695,-0.349402 -0.16115,-0.632345 0.0884,-0.973584 0.15691,-0.214592 0.2475,-0.32746 0.33072,-0.328146 z M 27.98103,81.578298 c 0.31179,-0.0061 0.34158,0.188997 0.34158,0.909505 0,0.629258 -0.14257,1.048146 -0.38861,1.142566 -0.45642,0.175144 -0.54861,0.05196 -0.78496,-1.051099 -0.15793,-0.737096 -0.10399,-0.840389 0.49816,-0.955497 0.13712,-0.02621 0.24653,-0.04376 0.33383,-0.04547 z m -1.27796,3.298507 c 0.36852,-0.02553 0.38552,1.109836 -0.14883,2.804996 -0.24485,0.776774 -0.53029,1.412317 -0.63458,1.412317 -0.39605,0 -0.38426,-2.495066 0.0155,-3.278869 0.32452,-0.63628 0.58794,-0.925975 0.76791,-0.938444 z m -4.27622,2.146122 c 0.0652,-0.0045 0.0532,0.180875 0.0145,0.595829 -0.0397,0.42534 -0.22066,0.82187 -0.40256,0.8816 -0.45722,0.150122 -0.41506,-0.520788 0.0718,-1.141532 0.16814,-0.214339 0.26554,-0.332432 0.31626,-0.335897 z m 222.57297,17.178283 c 0.0842,-0.004 0.15913,0.0747 0.26097,0.22996 0.16617,0.25341 0.1567,0.5058 -0.0274,0.7276 -0.61648,0.74225 -1.19902,0.1568 -0.61082,-0.61339 0.17387,-0.22767 0.28177,-0.33939 0.37724,-0.34417 z m -224.85139,0.64906 c 0.0938,-0.005 0.20162,0.0669 0.30024,0.24288 0.16908,0.30206 0.16015,0.55196 -0.0274,0.73949 -0.20138,0.20137 -0.33117,0.15931 -0.44803,-0.14522 -0.17104,-0.44568 -0.0315,-0.82617 0.17518,-0.83715 z m 230.0118,6.5598 c 0.19977,0.0151 0.18939,0.63516 -0.15865,1.79679 -0.2116,0.70626 -0.4573,1.02268 -0.79375,1.02268 -0.59818,0 -0.59906,0.0394 0.0196,-1.40405 0.41629,-0.97116 0.75649,-1.42875 0.93276,-1.41542 z m 0.63975,5.99447 c 0.46711,0 0.49271,0.343 0.10129,1.33945 -0.42483,1.0815 -0.77164,1.30942 -1.01751,0.66869 -0.15679,-0.40859 0.57301,-2.00814 0.91622,-2.00814 z m 0.97359,4.27312 c 0.17198,-0.012 0.36176,0.0868 0.56999,0.29508 0.36642,0.36638 0.3569,0.57498 -0.0935,2.08669 -0.40114,1.34613 -0.61714,1.69644 -1.08883,1.76423 -0.69519,0.0999 -0.7313,-0.21191 -0.28267,-2.44584 0.22322,-1.11148 0.51667,-1.67383 0.89504,-1.70016 z m -233.78159,5.57176 c 0.19082,-0.006 0.4301,0.29847 0.49247,0.82527 0.046,0.38896 -0.0236,0.70693 -0.15451,0.70693 -0.39931,0 -0.59066,-0.32163 -0.59066,-0.99219 0,-0.36703 0.11345,-0.53592 0.2527,-0.54001 z m -0.14573,17.93637 c 0.19819,0 0.41729,0.29766 0.48679,0.66146 0.0695,0.36381 0.0431,0.66145 -0.0589,0.66145 -0.10198,0 -0.32103,-0.29764 -0.48679,-0.66145 -0.24115,-0.5293 -0.22944,-0.66146 0.0589,-0.66146 z m -0.29611,2.38125 c 0.45269,0 0.7183,0.54587 0.7183,1.47691 0,0.39234 -0.15351,0.63975 -0.39687,0.63975 -0.24337,0 -0.39688,-0.24741 -0.39688,-0.63975 0,-0.3519 -0.0724,-0.82815 -0.16071,-1.05833 -0.10246,-0.267 -0.017,-0.41858 0.23616,-0.41858 z m 1.98438,9.63972 c 0.018,-4e-4 0.0372,0.005 0.0568,0.0176 0.14552,0.0899 0.26458,0.51357 0.26458,0.94154 0,0.42798 -0.11906,0.77825 -0.26458,0.77825 -0.14552,0 -0.26458,-0.42363 -0.26458,-0.94154 0,-0.49034 0.0817,-0.79304 0.20774,-0.79582 z m 11.69231,39.71075 c 0.14852,-0.001 0.27535,0.0809 0.28473,0.2589 0.008,0.14552 -0.18464,0.30575 -0.42736,0.35605 -0.27586,0.0572 -0.39718,-0.042 -0.32298,-0.26458 0.0751,-0.22529 0.28636,-0.34879 0.46561,-0.35037 z m 182.4302,18.51102 c 0.22178,-0.0168 0.0759,0.27492 -0.40876,0.9555 -0.63578,0.89286 -1.04024,0.98846 -1.04024,0.24598 0,-0.31281 0.31843,-0.68697 0.79375,-0.93276 0.32204,-0.16654 0.53908,-0.25993 0.65525,-0.26872 z m -21.68291,16.56901 c 0.23043,0.007 0.3813,0.17441 0.46664,0.50075 0.0995,0.38055 0.008,0.52916 -0.32556,0.52916 -0.25509,0 -0.89254,0.41672 -1.41697,0.92605 -1.00708,0.97806 -1.87507,1.16487 -2.67943,0.5767 -0.43374,-0.31716 -0.35922,-0.39379 0.80926,-0.83457 0.7079,-0.26704 1.62367,-0.76469 2.03502,-1.10588 0.48654,-0.40358 0.84989,-0.60058 1.11104,-0.59221 z m -5.0369,3.16622 c 0.0519,-2.9e-4 0.13715,0.0263 0.25838,0.0729 0.24711,0.0948 0.49875,0.17208 0.55965,0.17208 0.0609,0 0.11111,0.1786 0.11111,0.39688 0,0.5819 -0.46428,0.48409 -0.81546,-0.17208 -0.18083,-0.33796 -0.22791,-0.46911 -0.11368,-0.46974 z m -5.35885,2.389 c 0.17314,0.006 0.20257,0.12175 0.20257,0.34106 0,0.20248 -0.47899,0.55967 -1.06402,0.79375 -1.29835,0.51952 -1.58181,0.53102 -1.58181,0.0646 0,-0.19851 0.50993,-0.5557 1.13326,-0.79375 0.73286,-0.27989 1.11378,-0.4128 1.31,-0.40566 z m -41.9809,10.29084 c 0.31611,-0.001 0.64389,0.14774 0.64389,0.3974 0,0.21827 -0.21845,0.39687 -0.48524,0.39687 -0.57669,0 -0.87804,-0.24971 -0.68265,-0.56586 0.0969,-0.15678 0.30771,-0.22772 0.524,-0.22841 z" /><g
       id="g1053"><path
         id="path637"
         style="fill:#e0da37;fill-opacity:1"
         d="m 120.12497,79.950158 c -0.75841,0.0068 -1.17141,0.29537 -1.47278,0.951363 -0.47604,1.036223 -0.77756,7.782591 -0.82476,18.449519 -0.0226,5.09322 -0.117,10.39064 -0.2098,11.77189 l -0.31626,3.11971 c 0.62507,1.63744 1.43779,3.84029 2.33267,6.39082 1.29874,3.70157 2.40148,6.7702 2.4505,6.81922 0.049,0.049 0.27822,0.0168 0.50901,-0.0718 0.32596,-0.12509 0.39286,-0.43648 0.29972,-1.39526 -0.69293,-7.13304 -0.94235,-38.790717 -0.33951,-43.104862 0.13075,-0.93575 0.218,-1.448983 0.32866,-1.756482 -0.17068,-0.769548 -0.73994,-0.898026 -1.87534,-1.089856 -0.3382,-0.05714 -0.62931,-0.08649 -0.88211,-0.08423 z m -14.54279,3.282487 c -0.26307,0.02357 -0.55332,0.108556 -0.91208,0.257865 -1.18987,0.495202 -3.27543,2.475922 -3.02566,2.873726 0.0991,0.157795 0.26359,2.846654 0.36587,5.975346 0.10227,3.128692 0.48861,8.903248 0.85835,12.832288 0.69617,7.39792 1.17696,14.53374 1.87998,27.91354 0.56918,10.83265 0.8764,12.48787 2.48202,13.36043 0.83596,0.4543 1.54467,0.48841 2.58848,0.12454 l 0.78341,-0.27285 -0.40049,-1.19476 c -0.042,-0.10598 -0.0767,-0.17923 -0.12351,-0.30438 -0.1296,-0.3464 -0.23426,-0.74652 -0.32969,-1.187 -0.2522,-1.03857 -0.41279,-2.26976 -0.49145,-3.7822 -0.0828,-1.59128 -0.20745,-3.53365 -0.27853,-4.34134 -3.8e-4,-0.005 -0.001,-0.0159 -0.002,-0.0212 -7.9e-4,-0.009 -0.002,-0.0276 -0.003,-0.0367 -0.0712,-0.80642 -0.18705,-2.26325 -0.25994,-3.2706 -0.0738,-1.01865 -0.48722,-6.43599 -0.91829,-12.03854 -0.43107,-5.60253 -0.97058,-13.57975 -1.19889,-17.72708 -0.22831,-4.147334 -0.50587,-9.147974 -0.61702,-11.112501 -0.0571,-1.008636 -0.0901,-1.824105 -0.0946,-2.505274 -0.0636,-1.435945 -0.003,-2.008528 0.30075,-2.61431 0.13329,-0.377699 0.3102,-0.702678 0.54984,-1.026811 0.66409,-0.898228 0.54332,-1.43237 -0.40566,-1.793172 -0.24938,-0.09482 -0.48521,-0.13261 -0.74828,-0.109037 z m 4.99298,26.040275 c -0.66333,0 -0.65696,0.12198 0.40101,7.57059 0.66076,4.65203 0.92513,7.33198 1.19424,11.1125 0.15321,0.61919 0.29352,0.49677 0.29352,-0.84129 0,-0.73246 0.4346,-1.42934 0.53227,-1.52704 0.0977,-0.0977 1.14895,2.47225 2.33629,5.71076 2.61421,7.13045 3.06766,8.05709 4.18166,8.54574 0.89039,0.39057 1.83779,0.30429 3.31143,-0.30128 0.59534,-0.24466 1.06608,-0.5985 0.9281,-0.8263 -0.008,-0.0126 -0.0594,-0.0794 -0.0723,-0.0982 -0.3749,-0.28857 -0.75787,-0.80429 -1.28623,-1.59887 -1.34259,-2.01908 -2.14549,-3.93797 -7.04505,-16.83463 -3.35302,-8.82586 -4.00378,-10.49513 -4.47983,-10.81536 -0.0654,-0.0329 -0.12597,-0.0615 -0.19017,-0.0806 -0.0347,-0.004 -0.0676,-0.016 -0.1049,-0.016 z" /><path
         id="path589"
         style="fill:#e89511;fill-opacity:1"
         d="m 99.708125,73.038435 c -0.64425,-0.01287 -1.142458,0.219393 -1.617473,0.715202 -0.383975,0.400783 -1.636036,2.811806 -2.782259,5.357812 -1.146223,2.546008 -2.905602,6.40591 -3.909322,8.577771 -0.882372,1.909287 -1.581319,3.472583 -1.829346,4.237984 0.293134,0.424312 0.61102,0.868038 0.870748,1.265039 0.832729,1.27286 1.573651,2.314474 1.646411,2.315104 0.0728,6.3e-4 2.322118,-4.879085 4.998145,-10.843782 2.470852,-5.507395 4.227161,-9.343002 4.568711,-10.013342 0.26195,-0.842763 0.0584,-1.097341 -0.60203,-1.327568 -0.51801,-0.180577 -0.95703,-0.276498 -1.343585,-0.28422 z M 74.850727,76.77154 c -1.656872,0.0612 -2.884061,1.29445 -2.884061,3.209624 0,0.969884 0.299768,1.636801 1.876371,4.176489 3.09269,4.981889 4.131523,6.303843 7.786605,9.905855 3.798885,3.743725 4.510495,4.815497 5.501989,8.289412 0.575877,2.01773 0.577268,2.10391 0.503329,23.52002 -0.06473,18.74781 -0.02277,21.59377 0.325561,22.26737 0.219656,0.42477 0.550393,0.83304 0.735356,0.90744 0.470214,0.18919 2.865859,0.20101 3.549654,0.0176 0.331915,-0.0891 0.445652,-0.18557 0.431498,-0.46251 -0.113696,-0.24152 -0.293194,-0.68738 -0.56379,-1.52755 -0.167171,-0.51906 -0.282055,-1.0129 -0.376204,-1.63039 -0.014,-0.0635 -0.02151,-0.0975 -0.03514,-0.15917 -0.01245,-0.0563 -0.02656,-0.34688 -0.04031,-0.58394 -0.169482,-1.67169 -0.247343,-4.54805 -0.382405,-11.98015 -0.12462,-6.85768 -0.233699,-16.0999 -0.242879,-20.53828 -0.0185,-8.92748 -0.20149,-10.46747 -1.560629,-13.159918 -0.440429,-0.872479 -1.469726,-2.406015 -2.287715,-3.407544 -0.59619,-0.729966 -1.188749,-1.479487 -1.809709,-2.245858 -0.115765,-0.139332 -0.211311,-0.263378 -0.322978,-0.400492 -3.423378,-4.230382 -6.51438,-8.117111 -7.762833,-9.772013 -0.08187,-0.09505 -0.166544,-0.211745 -0.236678,-0.288872 -0.152711,-0.167937 -0.294068,-0.36272 -0.428398,-0.565857 -0.02125,-0.02983 -0.160134,-0.202733 -0.176733,-0.226859 -1.069189,-1.554018 -1.095948,-2.501608 -0.100769,-3.540352 0.282634,-0.295008 0.551811,-0.504312 0.767395,-0.638204 L 77.554955,77.50948 76.621679,77.119323 C 76.00351,76.861035 75.403018,76.75114 74.850727,76.77154 Z" /><path
         id="path556"
         style="fill:#781feb;fill-opacity:1"
         d="m 211.55763,74.712751 c -3.39219,-0.02319 -5.71622,1.190908 -8.59276,5.511809 -4.97274,7.469629 -6.25815,14.271317 -5.63997,29.84211 0.41939,10.56378 0.91137,14.51619 2.42053,19.44687 2.07748,6.78744 6.92103,14.54779 10.0552,16.10961 1.51185,0.75339 2.89741,0.86999 4.59145,0.38654 0.6206,-0.17711 1.03841,-0.4247 1.11414,-0.62838 -0.73498,0.13606 -1.3459,-0.0228 -2.43189,-0.54829 -2.18873,-1.05901 -3.9589,-3.25206 -6.24561,-7.73648 -4.60754,-9.03568 -6.34251,-17.46697 -6.37843,-30.99862 -0.0147,-5.52466 0.0539,-6.571616 0.6134,-9.392713 1.50234,-7.574415 4.26054,-14.910854 6.62906,-17.633032 1.23949,-1.424564 3.52419,-3.01225 5.31388,-3.692281 0.69878,-0.265516 1.101,-0.352963 1.53738,-0.313159 -0.0701,-0.248911 -1.1207,-0.341226 -2.98638,-0.353984 z m 2.67115,5.268413 c -0.4874,-0.04016 -1.04625,0.202748 -1.83658,0.790132 0.11801,0.516503 0.68792,1.488742 1.93012,3.686597 4.65441,8.235214 5.59047,12.860379 5.61257,27.725437 0.0132,8.85272 -0.20132,12.16549 -1.08003,16.66875 -0.74423,3.81401 -2.70497,8.06407 -4.35891,10.48205 -0.21771,0.31827 -0.35175,0.55377 -0.40928,0.75603 0.0168,0.0125 0.0312,0.0289 0.0481,0.0413 1.58725,1.16847 1.91616,1.28963 2.69131,0.99218 0.59698,-0.22909 2.54332,-3.03825 3.68349,-5.31595 2.33621,-4.66701 2.94277,-9.33115 3.19206,-24.55044 0.0793,-4.84088 0.0617,-7.91198 -0.12609,-10.4221 -0.0113,-0.16977 -0.021,-0.34765 -0.0331,-0.51057 -0.21318,-2.459119 -0.61165,-4.387922 -1.29656,-6.926188 -1.00917,-3.740026 -5.62687,-12.051453 -7.30756,-13.152685 -0.23351,-0.153001 -0.46296,-0.24427 -0.70952,-0.264583 z" /><path
         id="path480"
         style="fill:#102be6;fill-opacity:1"
         d="m 188.1141,79.110416 c -2.63384,0 -3.22457,0.611441 -8.41913,8.712646 -2.74688,4.283907 -3.88003,6.007836 -3.90674,6.985103 0.0218,0.02675 0.17157,0.151192 0.17157,0.161231 0,0.406959 1.34271,1.103746 1.82935,0.949296 0.26201,-0.08316 3.03127,-3.771519 6.16654,-8.204667 0.0579,-0.1053 0.16806,-0.246782 0.28216,-0.393775 0.41874,-0.592682 0.65855,-0.925222 1.01802,-1.43247 0.0517,-0.09902 0.16263,-0.244451 0.28319,-0.398942 0.33825,-0.476654 0.71405,-1.006581 1.00149,-1.4087 0.0137,-0.07001 0.0559,-0.128005 0.1173,-0.164848 0.71357,-0.997096 1.26225,-1.738149 1.71101,-2.333191 0.003,-0.01155 0.0145,-0.03141 0.0145,-0.04031 0,-0.0043 0.0235,-0.01243 0.0289,-0.01757 1.25781,-1.663195 1.74986,-2.112063 2.15904,-2.131136 -0.70599,-0.197781 -1.67848,-0.28267 -2.45721,-0.28267 z m -30.97331,3.225643 c -1.12002,0.02147 -1.33605,1.248125 -1.21181,4.579565 0.0722,1.93469 1.42436,12.885088 3.46181,28.031366 3.39806,25.2611 3.48544,25.85624 3.90312,26.67124 0.3002,0.58574 1.25488,0.5913 2.46548,0.0139 l 1.49396,-0.67541 c -0.34286,-0.0614 -0.55772,-0.1853 -0.6444,-0.51677 -0.0838,-0.32056 -0.58461,-3.80315 -1.11259,-7.73906 -0.52799,-3.93591 -1.71723,-12.51398 -2.64274,-19.0624 -0.92552,-6.54843 -1.86615,-13.51359 -2.09031,-15.478125 -0.82092,-7.194613 -1.18533,-14.75221 -0.71623,-14.806848 l -1.464,-0.670243 c -0.59519,-0.227304 -1.06894,-0.354423 -1.44229,-0.347265 z m 31.91588,4.680851 -0.94929,1.272273 c -0.52226,0.699846 -1.40582,2.105713 -1.96319,3.124358 -0.12752,0.233053 -0.33074,0.543726 -0.49713,0.817521 l 0.31265,13.673588 c 0.17445,6.87306 0.317,17.19938 0.31677,22.94743 -2.3e-4,5.74807 0.11755,11.58215 0.262,12.96458 0.3189,3.05196 0.90182,5.17848 1.51826,5.53765 0.5978,0.34832 0.56456,0.35037 1.97352,-0.12971 0.73847,-0.25162 1.04707,-0.42427 1.10536,-0.73897 -0.0639,-0.1316 -0.13134,-0.2983 -0.22996,-0.53433 -0.10493,-0.25113 -0.23426,-0.69465 -0.35864,-1.20045 -0.0791,-0.20627 -0.14423,-0.54877 -0.2036,-0.9834 -0.035,-0.17888 -0.0815,-0.35734 -0.10956,-0.52813 -0.31,-1.88512 -0.70174,-18.4308 -1.00304,-42.38243 z m -25.63616,4.422469 c -0.54362,0.208608 -0.5452,0.189627 0.23203,2.474784 0.086,0.252851 0.19547,0.795824 0.30076,1.284159 0.33401,0.181366 3.18841,2.093825 4.85086,3.182235 1.67349,1.095635 3.57851,2.141183 4.23334,2.323373 1.47375,0.41001 1.35713,0.39995 2.33629,0.20412 l 1.37304,-0.27905 c -0.60163,-0.0274 -1.30159,-0.50546 -3.87056,-2.54765 -5.56121,-4.420757 -8.98221,-6.823688 -9.45576,-6.641971 z" /><path
         id="path108"
         style="fill:#10bd28;fill-opacity:1"
         d="m 137.18077,76.269762 c -0.44745,-0.01551 -0.89163,0.04031 -1.2609,0.19327 -0.74473,0.308478 -1.40148,1.331256 -1.70016,2.647384 -0.14125,0.622402 -0.65649,8.632709 -1.63401,25.400004 -0.44075,7.56059 -0.84916,38.81101 -0.524,40.10659 0.17369,0.69208 0.1903,0.6965 1.94872,0.51315 0.84273,-0.0879 2.0889,-0.61197 2.29444,-0.65784 -0.0174,-0.007 -0.0375,-0.0342 -0.0605,-0.0879 -0.15203,-0.14679 -0.2651,-0.36032 -0.39275,-0.71572 -0.50501,-1.40608 -0.49805,-24.70366 0.01,-31.61771 0.21365,-2.91042 0.5184,-7.37526 0.67696,-9.92187 0.0766,-1.23031 0.18032,-2.599505 0.27027,-3.928447 0.002,-0.05484 -7.2e-4,-0.119537 0.002,-0.172599 0.069,-1.309687 0.18571,-2.976564 0.25941,-3.704167 0.008,-0.08209 0.0164,-0.191002 0.0248,-0.275435 0.26739,-3.691875 0.51587,-6.867408 0.70848,-8.934339 0.0286,-0.332784 0.0505,-0.730478 0.0765,-0.976684 0.003,-0.03177 0.0166,-0.05889 0.0227,-0.0894 0.17304,-1.584731 0.64766,-3.855622 1.07642,-5.397087 5.5e-4,-0.0056 -0.001,-0.01799 -5.1e-4,-0.02325 0.0239,-0.182285 0.0845,-0.389668 0.15916,-0.574642 0.12483,-0.401764 0.22501,-0.604176 0.31936,-0.768945 -0.1,-0.519521 -1.19378,-0.976895 -2.27635,-1.014409 z m -0.87591,68.202558 c 0.006,0.002 0.0136,0.0195 0.0186,0.0155 0.0251,-0.0202 0.0138,-0.0227 -0.0186,-0.0155 z m 4.17235,-54.24527 c -0.3658,-0.0035 -0.43952,1.241149 -0.58187,8.756571 l 0.76429,2.494419 1.17667,3.43442 c 0.64735,1.88888 1.48529,4.25228 1.8619,5.25187 0.74889,1.98764 0.86607,3.28264 0.35399,3.91139 -0.1819,0.22335 -1.0451,0.79658 -1.91823,1.27383 -0.87312,0.47725 -1.63385,0.90946 -1.69085,0.96066 -0.057,0.0512 0.18113,0.33028 0.52916,0.62012 0.30007,0.24988 0.57987,0.50829 0.69815,0.5979 0.70094,-0.29893 1.0029,-0.39909 2.05879,-0.88677 4.09486,-1.89131 4.18476,-1.95001 4.18476,-2.73937 0,-0.3289 -1.00173,-4.09492 -2.22622,-8.36848 -1.22448,-4.27357 -2.66896,-9.377406 -3.21014,-11.341945 -0.97735,-3.547819 -1.18394,-3.956839 -2.0004,-3.964615 z m 8.08581,28.91141 c -0.49661,-0.008 -1.39745,0.34565 -2.913,1.03457 0.0958,0.32309 0.34564,0.916 0.74311,1.86035 0.37784,0.89771 1.68764,5.8652 2.91093,11.0386 2.5362,10.72588 2.84296,11.76837 3.62562,12.31656 1.02833,0.72027 3.31482,0.38762 3.48971,-0.43925 l -1.36787,-5.04155 c -0.0616,-0.20628 -0.1151,-0.39802 -0.15245,-0.56224 l -0.47852,-1.76372 c -0.0796,-0.24713 -0.15722,-0.52572 -0.2279,-0.84129 l -0.52555,-1.93735 c -0.16764,-0.41879 -0.34178,-1.04639 -0.39067,-1.41955 -0.004,-0.0274 -0.0174,-0.0723 -0.0222,-0.10232 l -0.15451,-0.56999 c -0.0773,-0.28512 -0.13159,-0.46431 -0.20826,-0.74569 -0.004,-0.0108 -0.008,-0.0267 -0.0119,-0.0372 -0.15477,-0.38459 -0.30789,-0.95213 -0.37207,-1.341 -0.19118,-0.69562 -0.34818,-1.24556 -0.53072,-1.9017 -0.0824,-0.24773 -0.14692,-0.47869 -0.20206,-0.7245 -0.23965,-0.8573 -0.49667,-1.79813 -0.7121,-2.55437 -0.007,-0.0258 -0.0132,-0.0455 -0.0202,-0.0713 -0.90162,-3.16323 -1.61882,-5.58634 -1.74615,-5.76812 -0.18987,-0.27108 -0.38831,-0.4235 -0.73329,-0.42892 z" /><path
         id="path107"
         style="fill:#e70606;fill-opacity:1"
         d="m 50.293054,76.026366 c -0.702917,1.89e-4 -1.362755,0.06562 -1.673283,0.214457 -1.270707,0.609034 -1.435233,1.359075 -1.752348,7.973157 -0.424121,8.845981 -0.412739,37.83658 0.01654,41.85998 0.186316,1.74624 0.445393,7.52836 0.575676,12.84934 0.161493,6.59565 0.340028,9.9006 0.560689,10.3849 0.252732,0.55469 0.508785,0.71055 1.167887,0.71055 1.394327,0 2.282285,-0.40108 2.493388,-1.06815 -0.06025,-0.16899 -0.12908,-0.38255 -0.190169,-0.85008 -0.0808,-0.61847 -0.415851,-4.5773 -0.744141,-8.7974 -0.558409,-7.17834 -0.59131,-8.92641 -0.51263,-27.11979 0.0463,-10.69577 0.165314,-22.682708 0.264584,-26.637648 0.05782,-2.303776 0.108277,-3.158758 0.16123,-4.261239 0.0086,-0.484407 0.0214,-0.950383 0.05013,-1.320333 0.09881,-1.349055 0.237045,-1.969299 0.525033,-2.355928 0.440195,-0.59096 0.850718,-0.917026 1.500166,-1.029395 0.01308,-0.02666 0.02119,-0.05769 0.02119,-0.09302 0,-0.278695 -1.292404,-0.459718 -2.463932,-0.459404 z m 4.819344,4.715991 c -0.813049,-0.09083 -1.062014,0.358187 -1.088823,1.385446 0.141732,0.07319 1.543343,0.472667 2.484086,0.897102 2.325643,1.049259 5.222995,3.469654 6.883818,5.021916 5.087888,4.755314 7.715475,12.744439 7.720975,23.475049 0.0045,8.82596 -1.928083,15.29595 -6.702433,22.43584 -2.744096,4.10372 -5.950978,6.98413 -9.007719,7.47293 -0.475313,0.076 -0.737026,0.13799 -0.883667,0.24546 0.02262,0.21263 0.04707,0.57797 0.06718,0.60359 0.408419,0.5204 1.406211,0.39306 3.504179,-0.44701 6.421453,-2.57127 11.386157,-8.17284 14.103015,-15.91169 1.227778,-3.49724 2.198068,-8.23065 2.354378,-11.4887 0.1528,-3.18457 -0.711411,-13.24064 -1.39423,-16.226399 -1.673659,-7.31841 -6.73019,-12.726876 -15.507581,-16.586068 -1.169856,-0.514355 -1.980098,-0.815675 -2.533178,-0.877466 z" /><path
         id="path998"
         style="fill:#050404;fill-opacity:1"
         d="m 51.49123,148.10064 c -0.0808,-0.61847 -0.41553,-4.5773 -0.74382,-8.7974 -0.55841,-7.17835 -0.59147,-8.92639 -0.51279,-27.11979 0.0463,-10.69578 0.16532,-22.68274 0.26459,-26.637684 0.16919,-6.740923 0.21528,-7.237523 0.73667,-7.9375 0.87655,-1.176763 1.6276,-1.309313 4.40516,-0.777449 4.53872,0.869101 8.8989,3.20068 13.5654,7.254027 3.97024,3.448569 6.12321,6.790007 7.26723,11.278863 0.80998,3.17818 1.39291,12.667903 1.26073,20.523903 -0.10089,5.99608 -0.16208,6.68029 -0.81571,9.12192 -1.44614,5.40202 -4.64698,10.65493 -9.45154,15.51096 -2.89183,2.9228 -3.59136,3.38676 -7.65933,5.08001 -1.23693,0.51486 -3.5338,1.54102 -5.10416,2.28036 -1.57037,0.73934 -2.90252,1.34426 -2.96036,1.34426 -0.0578,0 -0.17126,-0.50602 -0.25207,-1.12448 z m 6.59857,-6.26773 c 6.42146,-2.57128 11.38659,-8.17308 14.10345,-15.91193 1.22778,-3.49725 2.19757,-8.23052 2.35388,-11.48857 0.1528,-3.18457 -0.71103,-13.24085 -1.39385,-16.226613 -1.67366,-7.318417 -6.73044,-12.726754 -15.50784,-16.58595 -3.11962,-1.371615 -3.68215,-1.227433 -3.6295,0.930267 0.009,0.363802 -0.12607,2.864115 -0.29989,5.55625 -0.33517,5.191164 -0.26157,14.967976 0.30176,40.084376 0.18148,8.09105 0.4155,13.89457 0.56815,14.08906 0.40842,0.5204 1.40587,0.39318 3.50384,-0.44689 z m 34.02336,5.2425 c -0.58182,-1.80652 -0.61659,-2.40507 -0.83373,-14.35365 -0.12462,-6.85769 -0.2341,-16.09993 -0.24328,-20.53831 -0.0185,-8.92749 -0.20108,-10.46782 -1.56022,-13.160273 -0.44043,-0.87248 -1.47004,-2.40577 -2.28803,-3.4073 -4.45259,-5.451689 -9.98916,-12.413 -10.73717,-13.50019 -1.06919,-1.554019 -1.09623,-2.501219 -0.10105,-3.539964 0.41528,-0.43346 0.88161,-0.786425 1.03628,-0.784366 1.16325,0.01548 9.16491,9.455143 13.05467,15.400749 0.83273,1.272861 1.57359,2.314811 1.64635,2.315441 0.0728,6.3e-4 2.32177,-4.879065 4.9978,-10.843768 2.67602,-5.964703 4.90284,-10.844915 4.94848,-10.844915 0.0456,0 0.41602,0.141785 0.82305,0.315077 1.18763,0.505634 1.93067,1.303951 1.93067,2.074293 0,1.142029 -2.69677,8.030744 -6.21151,15.866881 -1.79494,4.001822 -3.46568,7.896902 -3.71277,8.655715 -0.40907,1.25634 -0.42086,1.91864 -0.13185,7.40834 0.46775,8.88498 0.67433,37.47402 0.28124,38.92315 -0.25037,0.92303 -0.48498,1.21741 -1.2124,1.52135 -0.49608,0.20727 -0.94188,0.37686 -0.99067,0.37686 -0.0488,0 -0.36193,-0.8483 -0.69586,-1.88512 z m 98.79262,-1.12415 c -0.20513,-0.49094 -0.50759,-1.71133 -0.67214,-2.71198 -0.31,-1.88512 -0.70146,-18.4308 -1.00276,-42.38245 l -0.1741,-13.84015 -0.94956,1.272446 c -0.52226,0.699846 -1.40559,2.105884 -1.96296,3.12453 -1.04822,1.915723 -3.56476,5.424221 -4.99862,6.968941 -0.90392,0.97381 -2.74223,1.994663 -4.0361,2.241333 -0.75618,0.14416 -1.15463,-0.0951 -4.23334,-2.542493 -5.56121,-4.420762 -8.98214,-6.823753 -9.45569,-6.642036 -0.54362,0.208608 -0.5454,0.189588 0.23183,2.474747 0.51247,1.506729 1.2692,6.541532 3.43958,22.884792 1.53041,11.52419 2.78257,21.3968 2.78257,21.93915 0,1.30721 -0.94399,2.28494 -2.20608,2.28494 -0.71254,0 -0.93991,-0.12506 -1.05963,-0.58285 -0.0838,-0.32057 -0.58441,-3.80315 -1.11239,-7.73906 -0.52799,-3.93592 -1.71722,-12.51403 -2.64273,-19.06246 -0.92552,-6.54844 -1.86616,-13.5136 -2.09032,-15.478133 -0.8239,-7.220734 -1.18895,-14.816663 -0.71207,-14.816663 0.72602,0 3.08093,1.368836 5.44268,3.163666 4.69718,3.569666 10.46595,8.233897 10.46595,8.462047 0,0.40696 1.34273,1.10366 1.82937,0.94921 0.26528,-0.0842 3.08713,-3.840971 6.27078,-8.348382 5.41979,-7.67335 5.83906,-8.194755 6.58321,-8.186876 0.43712,0.0046 0.98368,0.153456 1.21457,0.330729 1.16149,0.89176 1.13147,0.297711 1.46008,28.897312 0.17222,14.98865 0.39436,29.23468 0.49364,31.65784 0.20479,4.99818 0.0263,5.75648 -1.47892,6.28119 -1.09697,0.3824 -0.99955,0.42332 -1.42685,-0.59934 z m -80.8272,-1.1527 c -0.41963,-1.12157 -0.63246,-2.55034 -0.81777,-5.4901 -0.13779,-2.18568 -0.72292,-10.10569 -1.3003,-17.60001 -0.57738,-7.49433 -1.22991,-17.01933 -1.45007,-21.16667 -0.22015,-4.147343 -0.47716,-8.929413 -0.57112,-10.626823 -0.16706,-3.017949 -0.15511,-3.113031 0.54019,-4.299479 0.76566,-1.306496 0.90712,-1.38912 1.51104,-0.882551 0.82542,0.692368 1.06569,1.427323 4.17347,12.76615 3.80089,13.867633 3.49836,12.846603 4.39016,14.816663 0.39525,0.87312 1.78124,4.61606 3.07998,8.31763 1.29874,3.70157 2.40145,6.77023 2.45047,6.81925 0.049,0.049 0.27794,0.0167 0.50873,-0.0719 0.32596,-0.12509 0.39285,-0.43651 0.29971,-1.39529 -0.69293,-7.13305 -0.94208,-38.790438 -0.33924,-43.104587 0.27979,-2.002315 0.3546,-2.182812 0.90474,-2.182812 0.9568,0 1.42905,0.275971 1.84341,1.077257 0.32388,0.626324 0.38711,2.81357 0.38724,13.395539 1.9e-4,15.261743 0.28929,21.496143 1.62168,34.970573 0.67282,6.80429 0.58036,7.45322 -1.17555,8.25042 -1.95473,0.88746 -2.32856,0.75028 -3.74011,-1.37249 -1.34259,-2.01908 -2.14561,-3.93791 -7.04517,-16.83458 -4.04008,-10.63435 -4.16145,-10.91172 -4.77483,-10.91172 -0.66333,0 -0.65687,0.12188 0.4011,7.5705 0.97303,6.85059 1.0397,7.56855 1.61875,17.43263 0.54518,9.28706 0.52685,10.84733 -0.13519,11.50937 -0.29104,0.29104 -0.81827,0.52917 -1.17161,0.52917 -0.53947,0 -0.73338,-0.24302 -1.20971,-1.51614 z m 102.99595,0.0343 c -2.18873,-1.05901 -3.95921,-3.25198 -6.24593,-7.7364 -4.60754,-9.03569 -6.34231,-17.46672 -6.37823,-30.99839 -0.0147,-5.52466 0.0537,-6.571603 0.61324,-9.392703 1.50234,-7.574423 4.26038,-14.910878 6.6289,-17.633059 1.23949,-1.424566 3.52461,-3.012208 5.31431,-3.69224 1.03576,-0.393559 1.41594,-0.423139 2.22946,-0.173463 1.47396,0.452371 3.08308,2.032106 4.84901,4.760464 3.56304,5.504893 5.71256,10.336423 6.68946,15.036068 0.53863,2.59124 0.56427,3.23929 0.41802,10.565763 -0.1382,6.92318 -0.64435,18.17582 -1.1068,24.60626 -0.32449,4.51199 -1.59605,7.88351 -4.1695,11.05534 -1.42679,1.75855 -2.11131,2.27236 -4.69426,3.52356 -1.91789,0.92904 -2.37259,0.93768 -4.14768,0.0788 z m 3.75127,-3.70941 c 0.59698,-0.22909 2.54355,-3.03806 3.68373,-5.31576 2.33621,-4.66701 2.94259,-9.33094 3.19188,-24.55024 0.16441,-10.03763 -0.0479,-12.643063 -1.45536,-17.859144 -1.00917,-3.74003 -5.62709,-12.051446 -7.30778,-13.152679 -0.93403,-0.612004 -1.79925,-0.237499 -3.98166,1.723434 -1.63158,1.466013 -2.14517,2.136944 -2.97651,3.888385 -4.1921,8.831751 -5.24307,20.338214 -3.04497,33.337504 1.92011,11.35528 4.66246,17.59623 9.19966,20.93632 1.58725,1.16847 1.91586,1.28963 2.69101,0.99218 z m -63.72591,-8.41243 c -1.87723,-6.92211 -3.58894,-12.83664 -3.80379,-13.14339 -0.50632,-0.72287 -1.07356,-0.60398 -4.31812,0.90501 -2.9719,1.38218 -4.34959,2.49975 -5.11134,4.14626 -0.51383,1.11063 -0.55975,1.78883 -0.68348,10.09321 -0.12441,8.35044 -0.16461,8.93788 -0.64828,9.47169 -0.37676,0.41583 -0.76277,0.54784 -1.4332,0.49013 -0.78016,-0.0672 -0.96738,-0.21766 -1.25017,-1.00502 -0.50501,-1.40608 -0.49787,-24.70365 0.01,-31.61771 0.21365,-2.91042 0.51819,-7.37526 0.67675,-9.92188 0.39427,-6.332163 1.01671,-14.657703 1.33869,-17.905698 0.23484,-2.368946 1.25431,-6.736874 1.66922,-7.151784 0.29548,-0.295479 1.799,0.546041 2.41183,1.3499 0.735,0.9641 0.19876,-0.941276 9.79964,34.820082 4.16075,15.49797 7.63286,28.79041 7.71579,29.53876 0.13785,1.24394 0.0935,1.39814 -0.51678,1.79803 -0.36715,0.24057 -1.0671,0.50055 -1.55543,0.57773 l -0.88788,0.14033 z m -9.37069,-16.06948 c 4.09486,-1.89131 4.18487,-1.95023 4.18487,-2.73959 0,-0.3289 -1.00185,-4.09456 -2.22634,-8.36813 -1.22448,-4.27357 -2.66912,-9.377463 -3.2103,-11.342003 -0.97735,-3.547823 -1.18374,-3.956918 -2.0002,-3.964694 -0.3796,-0.0036 -0.44393,0.999832 -0.59762,9.322514 -0.0947,5.129603 -0.24621,11.254143 -0.33664,13.610093 -0.16234,4.22917 -0.0921,5.10917 0.40761,5.10917 0.14036,0 1.84074,-0.73231 3.77862,-1.62736 z" /></g><g
       id="g1054"><path
         style="fill:#ffffff;fill-opacity:1"
         d="m 84.076296,214.56909 c 3.027532,-0.37962 6.241128,-1.36261 9.536801,-2.91718 2.665665,-1.25739 2.963866,-1.4838 5.860758,-4.44989 3.189425,-3.26561 4.348835,-4.04053 6.769985,-4.52488 2.9382,-0.58778 32.69425,-1.43993 36.23429,-1.03767 2.99089,0.33985 6.00276,0.26445 11.77396,-0.29475 2.98318,-0.28906 6.80927,-0.52565 8.50243,-0.52576 4.30964,-2.8e-4 5.273,0.35228 8.08747,2.95972 4.55322,4.21831 10.16164,6.56928 15.65778,6.56352 5.17801,-0.005 11.81278,-1.97652 15.80645,-4.69584 3.92911,-2.67537 7.58548,-7.76798 8.12743,-11.31996 0.30756,-2.01576 -0.81745,-4.42645 -2.46279,-5.27728 -0.46892,-0.24249 -0.82213,-0.68381 -0.92609,-1.15712 -0.21829,-0.9939 -1.18467,-1.88599 -2.29783,-2.12119 -0.48701,-0.1029 -3.9811,-0.11965 -7.76464,-0.0372 -3.78354,0.0824 -6.9777,0.0721 -7.09814,-0.023 -0.12043,-0.0951 -0.23949,-0.7484 -0.26458,-1.45179 -0.0402,-1.12677 0.0331,-1.31585 0.61584,-1.58957 0.36381,-0.17088 3.45943,-0.63051 6.87917,-1.02142 7.41259,-0.84731 7.96232,-0.97293 8.84423,-2.02102 0.95352,-1.13319 0.86811,-1.97393 -0.5392,-5.30803 -1.42041,-3.36513 -3.05209,-5.71828 -4.79432,-6.91418 -1.66179,-1.14069 -2.37597,-1.92324 -2.95985,-3.24321 -7.77617,-13.35227 -23.62678,-8.0675 -32.18076,1.67229 -1.98855,2.31797 -3.38752,4.0527 -4.26805,4.15807 -0.94085,0.11258 -2.05542,0.52777 -9.60376,0.71433 -4.81372,0.11897 -15.65784,0.57752 -24.09805,1.01901 -8.44021,0.44148 -18.22697,0.92382 -21.74835,1.07187 -6.293228,0.26458 -6.53671,-0.0354 -7.471523,-0.58692 -0.523077,-0.30862 -1.184441,-1.01862 -1.469699,-1.57777 -0.285257,-0.55915 -0.743479,-1.13696 -1.018271,-1.28402 -0.274791,-0.14707 -0.83094,-0.83566 -1.235886,-1.5302 -7.821403,-12.77756 -25.867477,-8.47924 -36.064563,7.24855 -1.729402,2.6674 -1.809394,3.21646 -1.108369,4.10767 0.437718,0.55647 0.511244,0.9191 0.380203,1.87515 -0.291246,2.12487 0.292693,2.33829 10.797821,3.94655 l 3.885566,0.59485 -0.14321,2.25616 c -0.07877,1.2409 -0.221181,2.84881 -0.316479,3.57314 l -0.173269,1.31697 -5.987609,0.84108 c -3.293185,0.4626 -6.238727,0.97548 -6.545649,1.13974 -0.737698,0.3948 -0.706407,0.93121 0.231642,3.97102 0.745869,2.41703 0.941889,2.74896 3.532992,5.98245 1.50882,1.88289 3.512572,4.14279 4.452782,5.022 4.14352,3.8747 10.23834,5.66882 16.563337,4.87573 z"
         id="path132"
         sodipodi:nodetypes="sssssssscsssssssssssssccssssssscsssscsscsssssss" /><path
         id="path991"
         style="fill:#050404;fill-opacity:1"
         d="m 78.14274,210.46738 c -4.7469,-1.2788 -9.96227,-4.84026 -12.72828,-8.69186 l -0.83255,-1.15931 3.10306,-0.31998 c 5.89319,-0.60769 7.52794,-1.22319 8.54531,-3.2174 0.64229,-1.25898 1.01821,-4.87993 1.03113,-9.93185 0.009,-3.35007 -0.0171,-3.51636 -0.66121,-4.28182 -0.89573,-1.06451 -1.71522,-1.28389 -6.07676,-1.6268 -4.84334,-0.38079 -6.56408,-0.66044 -7.38875,-1.20078 -0.66801,-0.4377 -0.67078,-0.45349 -0.21584,-1.23067 0.68343,-1.16753 6.18087,-6.86179 8.07544,-8.36457 5.154,-4.08815 12.41007,-5.34053 17.13195,-2.95693 2.01485,1.01709 3.64271,2.68014 6.07429,6.20559 2.1352,3.09573 3.41989,4.247 5.82395,5.21912 1.95342,0.7899 6.1405,0.79358 16.0073,0.0141 16.28026,-1.28617 34.12811,-2.06513 41.48476,-1.81057 6.7404,0.23324 6.95441,0.13755 9.70779,-4.34061 0.76051,-1.23692 1.99534,-3.00491 2.74406,-3.92886 4.48003,-5.52854 13.15909,-8.40528 18.25594,-6.05108 4.75251,2.19516 9.50284,6.60952 12.34339,11.47043 1.20986,2.07039 1.29872,2.65006 0.46146,3.0104 -0.32743,0.14092 -3.69094,0.78911 -7.47448,1.44043 -8.2062,1.41265 -7.93198,1.2568 -7.67593,4.36255 0.43005,5.21646 0.88884,7.33065 1.76183,8.11883 0.51011,0.46055 1.10343,0.49501 8.52285,0.49501 8.37968,0 9.6668,0.15035 10.22557,1.19442 0.4685,0.8754 0.28226,1.69068 -0.81525,3.56879 -2.10045,3.5944 -4.29052,5.62362 -8.15925,7.55998 -3.27968,1.64154 -5.63578,2.17736 -9.68066,2.20159 -6.58805,0.0395 -10.56681,-1.79829 -15.56909,-7.1912 -0.64401,-0.6943 -1.54526,-1.29407 -2.45732,-1.63531 -1.70691,-0.63864 -4.02982,-0.68278 -14.38505,-0.27339 -3.71078,0.14671 -12.16422,0.44614 -18.78541,0.66541 -16.69822,0.55299 -33.50937,1.40303 -34.89184,1.76429 -0.92363,0.24135 -1.80558,0.91448 -4.36563,3.33196 -5.23892,4.94718 -7.85132,6.68726 -11.39969,7.59316 -1.94652,0.49695 -5.88683,0.49539 -7.73709,-0.003 z M 91.9094,194.10797 c 1.91171,-0.79876 2.94706,-2.89877 2.77344,-5.62537 -0.089,-1.39758 -0.23141,-1.82372 -0.79934,-2.39165 -1.55562,-1.55562 -5.11318,-0.97572 -7.3673,1.20091 -1.9888,1.92043 -2.08432,3.75524 -0.28896,5.5506 1.50964,1.50963 3.85025,2.03093 5.68216,1.26551 z m 79.43521,-4.67719 c 0.99718,-0.36935 2.19505,-1.58269 2.51268,-2.54512 0.90743,-2.74954 -1.92199,-5.2916 -5.26175,-4.72735 -3.09373,0.52269 -4.12161,2.96263 -2.35907,5.59993 1.35127,2.02192 2.8447,2.51091 5.10814,1.67254 z m -112.06227,7.71303 c -0.46032,-1.65714 -0.35605,-2.07663 0.59162,-2.38014 1.32965,-0.42585 12.51636,-1.91078 12.99916,-1.72551 0.53485,0.20524 0.53555,0.36631 0.005,1.12395 -0.56386,0.80502 -0.90038,0.91781 -7.57786,2.53966 l -5.75248,1.39719 z m 145.38486,-9.21703 c -1.7474,-0.4269 -10.79579,-0.61528 -13.36146,-0.27817 -1.80993,0.23781 -2.26053,0.0172 -1.84178,-0.9019 l 0.30196,-0.66274 7.30097,-0.15635 c 7.86438,-0.16842 8.54344,-0.0845 9.41781,1.16384 0.51386,0.73364 0.55965,1.30533 0.10073,1.25757 -0.18191,-0.0189 -1.04511,-0.20894 -1.91823,-0.42225 z M 57.36748,178.70213 c -0.27102,-0.59482 -0.2122,-0.86604 0.44475,-2.05052 2.49846,-4.50479 6.82518,-9.64053 10.08433,-11.96992 3.76979,-2.69436 8.31298,-4.26233 13.12317,-4.52913 4.80653,-0.26659 7.51696,0.60017 9.92411,3.17361 1.10052,1.17654 1.17722,1.33697 0.75277,1.5745 -0.36609,0.20488 -0.9302,0.0207 -2.5031,-0.81741 -4.53701,-2.41742 -9.30808,-2.52303 -14.99013,-0.3318 -4.63777,1.78852 -7.93106,4.71215 -12.70307,11.2772 -1.73124,2.38174 -3.29908,4.33685 -3.4841,4.34469 -0.18502,0.008 -0.47695,-0.2942 -0.64873,-0.67122 z m 43.17075,-3.65239 c -0.6689,-0.38379 -1.45851,-1.68472 -1.18721,-1.95602 0.0771,-0.0771 2.73065,-0.24183 5.89689,-0.36616 3.16623,-0.12433 12.60288,-0.58338 20.97032,-1.0201 8.36745,-0.43673 19.4998,-0.92285 24.73855,-1.08026 8.96746,-0.26945 9.58663,-0.31969 10.57789,-0.85828 0.62648,-0.34039 2.14874,-1.85704 3.75877,-3.74492 3.18984,-3.74031 4.49306,-4.95563 7.40563,-6.90617 4.27897,-2.86562 8.69656,-3.8273 13.3243,-2.90061 3.20524,0.64183 5.67038,1.93313 7.67424,4.01994 0.90338,0.94078 1.57898,1.77405 1.50132,1.8517 -0.1433,0.14331 -1.49431,-0.38989 -5.39671,-2.12988 -3.0305,-1.35123 -5.44373,-1.81445 -8.68294,-1.6667 -3.10267,0.14152 -5.21169,0.77246 -7.9229,2.37025 -2.41015,1.42037 -5.5115,4.53619 -7.35352,7.38783 -1.89075,2.92708 -3.19454,4.3627 -4.25406,4.68421 -0.46334,0.14059 -3.75947,0.32793 -7.32473,0.41631 -7.64275,0.18944 -35.93782,1.3953 -50.27084,2.1424 -2.16422,0.11281 -2.92769,0.059 -3.455,-0.24354 z" /></g><path
       style="fill:#000000;stroke:none;stroke-width:0.298765px;stroke-linecap:round;stroke-linejoin:round;stroke-opacity:1"
       d="m 88.02597,189.67687 2.67486,-0.54792 0.50014,0.88772 -2.89928,1.17028 z"
       id="path1054" /><path
       style="fill:#000000;stroke:none;stroke-width:0.278404px;stroke-linecap:butt;stroke-linejoin:miter;stroke-opacity:1"
       d="m 169.75977,184.73353 1.37555,1.1914 -1.05872,1.15028 -1.32253,-1.06703 z"
       id="path1055" /></g></svg>
